<svg id="visual" viewBox="0 0 900 600" width="900" height="600" xmlns="http://www.w3.org/2000/svg" xmlns:xlink="http://www.w3.org/1999/xlink" version="1.1"><rect x="0" y="0" width="900" height="600" fill="#001220"></rect><defs><linearGradient id="grad1_0" x1="33.3%" y1="0%" x2="100%" y2="100%"><stop offset="20%" stop-color="#001220" stop-opacity="1"></stop><stop offset="80%" stop-color="#001220" stop-opacity="1"></stop></linearGradient></defs><defs><linearGradient id="grad2_0" x1="0%" y1="0%" x2="66.7%" y2="100%"><stop offset="20%" stop-color="#001220" stop-opacity="1"></stop><stop offset="80%" stop-color="#001220" stop-opacity="1"></stop></linearGradient></defs><g transform="translate(900, 0)"><path d="M0 351.5C-58.2 337.2 -116.3 322.8 -170.5 295.3C-224.7 267.8 -274.9 227.2 -304.4 175.8C-334 124.4 -342.7 62.2 -351.5 0L0 0Z" fill="#3cfa98"></path></g><g transform="translate(0, 600)"><path d="M0 -351.5C55 -331.6 109.9 -311.7 164.5 -284.9C219.1 -258.1 273.3 -224.4 304.4 -175.8C335.6 -127.1 343.5 -63.6 351.5 0L0 0Z" fill="#3cfa98"></path></g></svg>