<svg id="visual" viewBox="0 0 960 500" width="960" height="500" xmlns="http://www.w3.org/2000/svg" xmlns:xlink="http://www.w3.org/1999/xlink" version="1.1"><rect x="0" y="0" width="960" height="500" fill="#001d33"></rect><defs><linearGradient id="grad1_0" x1="43.8%" y1="0%" x2="100%" y2="100%"><stop offset="14.444444444444446%" stop-color="#001d33" stop-opacity="1"></stop><stop offset="85.55555555555554%" stop-color="#001d33" stop-opacity="1"></stop></linearGradient></defs><defs><linearGradient id="grad2_0" x1="0%" y1="0%" x2="56.3%" y2="100%"><stop offset="14.444444444444446%" stop-color="#001d33" stop-opacity="1"></stop><stop offset="85.55555555555554%" stop-color="#001d33" stop-opacity="1"></stop></linearGradient></defs><g transform="translate(960, 0)"><path d="M0 297C-52.8 289.7 -105.6 282.4 -148.5 257.2C-191.4 232 -224.6 188.9 -247.7 143C-270.8 97.1 -283.9 48.6 -297 0L0 0Z" fill="#3cfa98"></path></g><g transform="translate(0, 540)"><path d="M0 -297C54.3 -290.6 108.6 -284.2 148.5 -257.2C188.4 -230.3 214.1 -182.8 236.4 -136.5C258.8 -90.2 277.9 -45.1 297 0L0 0Z" fill="#3cfa98"></path></g></svg>