 
<svg xmlns="http://www.w3.org/2000/svg" version="1.1" xmlns:xlink="http://www.w3.org/1999/xlink" xmlns:svgjs="http://svgjs.dev/svgjs" viewBox="0 0 600 600"><path d="M256.8973773003105 287.54187437374065C198.68059314096806 274.77963428178106 112.49178597137171 262.36704425492553 102.7015765190605 238.24116941768594C92.91136706674928 214.11529458044632 159.86940539682743 161.8425691572693 198.1561205864433 142.78662535030313C236.44283577605916 123.730681543337 293.6106799126152 116.21319751420285 332.4218676567558 123.90550657588906C371.23305540089643 131.59781563757528 411.0931780815605 157.12229582149453 431.02324705128706 188.9404797204203C450.9533160210136 220.7586636193461 481.0232597669446 298.3810441938904 452.0022814751152 314.8146099694438C422.9813031832858 331.2481757449973 315.11416145965296 300.30411446570025 256.8973773003105 287.54187437374065C198.68059314096806 274.77963428178106 112.49178597137171 262.36704425492553 102.7015765190605 238.24116941768594 " fill="hsl(0, 0%, 75%)" stroke-width="4" stroke="hsl(205, 69%, 50%)" fill-opacity="0.05" stroke-opacity="0.73" transform="matrix(1.036011114416465,-0.37707720801655004,0.37707720801655004,1.036011114416465,-95.75369426640606,97.56128982331242)"></path><defs><radialGradient id="SvgjsRadialGradient1000" r="0.6"><stop stop-color="hsl(230, 55%, 50%)" offset="0"></stop><stop stop-color="hsl(230, 55%, 70%)" offset="1"></stop></radialGradient><linearGradient id="SvgjsLinearGradient1001"><stop stop-color="hsl(340, 45%, 50%)" offset="0"></stop><stop stop-color="hsl(340, 45%, 80%)" offset="1"></stop></linearGradient><linearGradient id="SvgjsLinearGradient1002"><stop stop-color="hsl(230, 55%, 50%)" offset="0"></stop><stop stop-color="hsl(230, 55%, 70%)" offset="1"></stop></linearGradient><radialGradient id="SvgjsRadialGradient1003"><stop stop-color="hsl(230, 55%, 50%)" offset="0"></stop><stop stop-color="hsl(230, 55%, 70%)" offset="1"></stop></radialGradient></defs><path d="M219.53832647624358 242.21411924435188C161.32154231690114 229.45187915239222 75.13273514730479 217.0392891255368 65.34252569499358 192.9134142882972C55.55231624268238 168.7875394510576 122.51035457276052 116.51481402788053 160.7970697623764 97.45887022091438C199.08378495199227 78.40292641394825 256.25162908854827 70.8854423848141 295.0628168326889 78.57775144650032C333.8740045768295 86.27006050818653 373.7341272574936 111.79454069210578 393.66419622722015 143.61272459103157C413.5942651969467 175.43090848995735 443.6642089428777 253.0532890645016 414.64323065104827 269.486854840055C385.62225235921886 285.9204206156084 277.75511063558605 254.97635933631153 219.53832647624358 242.21411924435188C161.32154231690114 229.45187915239222 75.13273514730479 217.0392891255368 65.34252569499358 192.9134142882972 " fill-opacity="1" fill="url(&quot;#SvgjsRadialGradient1003&quot;)" opacity="1" stroke-opacity="0.05" stroke-width="4" stroke="hsl(205, 69%, 50%)" transform="matrix(0.9396926207859095,-0.3420201433256688,0.3420201433256688,0.9396926207859095,-11.750643859817075,139.19650296870043)"></path></svg>
 