<svg xmlns="http://www.w3.org/2000/svg" version="1.1" xmlns:xlink="http://www.w3.org/1999/xlink" xmlns:svgjs="http://svgjs.dev/svgjs" viewBox="0 0 600 600"><path d="M413.8112072711249 266.4335374098556C419.2307883665025 228.84612362201395 257.5174933835923 123.07689627622969 219.7552532916327 139.51046459491457C181.99301319967307 155.94403291359944 154.89510772278504 343.8811018528073 187.23776671936707 365.0349473219642C219.5804257159491 386.18879279112116 408.39162617574726 304.0209511976966 413.8112072711249 266.4335374098556C419.2307883665025 228.84612362201395 257.5174933835923 123.07689627622969 219.7552532916327 139.51046459491457 " fill="url(&quot;#ssshape-pattern3&quot;)" stroke-width="22" stroke="hsl(230, 55%, 40%)" transform="matrix(0.9974999999999999,0,0,0.9974999999999999,0.733483066558847,0.6328155517578011)"></path><defs><pattern id="ssshape-pattern3" width="90" height="90" viewBox="0 0 40 40" patternUnits="userSpaceOnUse">
  <rect width="100%" height="100%" fill="hsl(205, 69%, 60%)"></rect>
  <path d="M11 20L20 0L20 40zM31 20L40 0L40 40zM0-20L9 0L0 20zM0 20L9 40L0 60zM20-20L29 0L20 20zM20 20L29 40L20 60z" fill="hsl(230, 55%, 50%)"></path>
</pattern></defs></svg>