<svg id="visual" viewBox="0 0 900 600" width="900" height="600" xmlns="http://www.w3.org/2000/svg" xmlns:xlink="http://www.w3.org/1999/xlink" version="1.1"><rect x="0" y="0" width="900" height="600" fill="#001d33"></rect><path d="M0 46L16.7 52.7C33.3 59.3 66.7 72.7 100 76.8C133.3 81 166.7 76 200 73.3C233.3 70.7 266.7 70.3 300 67.5C333.3 64.7 366.7 59.3 400 66C433.3 72.7 466.7 91.3 500 94C533.3 96.7 566.7 83.3 600 86C633.3 88.7 666.7 107.3 700 103.3C733.3 99.3 766.7 72.7 800 60.8C833.3 49 866.7 52 883.3 53.5L900 55" fill="none" stroke-linecap="round" stroke-linejoin="miter" stroke="#06d6a0" stroke-width="40"></path></svg>