<svg id="visual" viewBox="0 0 900 600" width="900" height="600" xmlns="http://www.w3.org/2000/svg" xmlns:xlink="http://www.w3.org/1999/xlink" version="1.1"><rect x="0" y="0" width="900" height="600" fill="#001d33"></rect><path d="M0 59L10.7 55.8C21.3 52.7 42.7 46.3 64.2 42.7C85.7 39 107.3 38 128.8 39.5C150.3 41 171.7 45 193 52C214.3 59 235.7 69 257 69.8C278.3 70.7 299.7 62.3 321.2 58.3C342.7 54.3 364.3 54.7 385.8 53.5C407.3 52.3 428.7 49.7 450 52C471.3 54.3 492.7 61.7 514.2 60.5C535.7 59.3 557.3 49.7 578.8 44C600.3 38.3 621.7 36.7 643 42.7C664.3 48.7 685.7 62.3 707 63.7C728.3 65 749.7 54 771.2 54C792.7 54 814.3 65 835.8 68C857.3 71 878.7 66 889.3 63.5L900 61" fill="none" stroke-linecap="round" stroke-linejoin="miter" stroke="#06d6a0" stroke-width="25"></path></svg>