<svg id="visual" viewBox="0 0 960 540" width="960" height="540" xmlns="http://www.w3.org/2000/svg" xmlns:xlink="http://www.w3.org/1999/xlink" version="1.1"><rect x="0" y="0" width="960" height="540" fill="#001d33"></rect><path d="M0 101L10.7 97C21.3 93 42.7 85 64 84C85.3 83 106.7 89 128 89.8C149.3 90.7 170.7 86.3 192 82.7C213.3 79 234.7 76 256 70.2C277.3 64.3 298.7 55.7 320 58.8C341.3 62 362.7 77 384 82.7C405.3 88.3 426.7 84.7 448 83.7C469.3 82.7 490.7 84.3 512 87.7C533.3 91 554.7 96 576 93.2C597.3 90.3 618.7 79.7 640 78.2C661.3 76.7 682.7 84.3 704 83.2C725.3 82 746.7 72 768 71.8C789.3 71.7 810.7 81.3 832 87C853.3 92.7 874.7 94.3 896 95.3C917.3 96.3 938.7 96.7 949.3 96.8L960 97L960 0L949.3 0C938.7 0 917.3 0 896 0C874.7 0 853.3 0 832 0C810.7 0 789.3 0 768 0C746.7 0 725.3 0 704 0C682.7 0 661.3 0 640 0C618.7 0 597.3 0 576 0C554.7 0 533.3 0 512 0C490.7 0 469.3 0 448 0C426.7 0 405.3 0 384 0C362.7 0 341.3 0 320 0C298.7 0 277.3 0 256 0C234.7 0 213.3 0 192 0C170.7 0 149.3 0 128 0C106.7 0 85.3 0 64 0C42.7 0 21.3 0 10.7 0L0 0Z" fill="#3cfa98" stroke-linecap="round" stroke-linejoin="miter"></path></svg>