<svg id="visual" viewBox="0 0 960 540" width="960" height="540" xmlns="http://www.w3.org/2000/svg" xmlns:xlink="http://www.w3.org/1999/xlink" version="1.1"><rect x="0" y="0" width="960" height="540" fill="#001d33"></rect><path d="M0 437L10.7 441C21.3 445 42.7 453 64 454C85.3 455 106.7 449 128 448.2C149.3 447.3 170.7 451.7 192 455.3C213.3 459 234.7 462 256 467.8C277.3 473.7 298.7 482.3 320 479.2C341.3 476 362.7 461 384 455.3C405.3 449.7 426.7 453.3 448 454.3C469.3 455.3 490.7 453.7 512 450.3C533.3 447 554.7 442 576 444.8C597.3 447.7 618.7 458.3 640 459.8C661.3 461.3 682.7 453.7 704 454.8C725.3 456 746.7 466 768 466.2C789.3 466.3 810.7 456.7 832 451C853.3 445.3 874.7 443.7 896 442.7C917.3 441.7 938.7 441.3 949.3 441.2L960 441" fill="none" stroke-linecap="round" stroke-linejoin="miter" stroke="#3cfa98" stroke-width="40"></path></svg>